<?xml version="1.0" encoding="UTF-8" standalone="no"?>
<!-- Generator: Gravit.io -->
<svg xmlns="http://www.w3.org/2000/svg" xmlns:xlink="http://www.w3.org/1999/xlink" style="isolation:isolate" viewBox="0 0 200 200" width="200pt" height="200pt"><defs><clipPath id="_clipPath_Hx74xMuSpui0Hrao7RCbHZMQEGXqSqvu"><rect width="200" height="200"/></clipPath></defs><g clip-path="url(#_clipPath_Hx74xMuSpui0Hrao7RCbHZMQEGXqSqvu)"><linearGradient id="_lgradient_0" x1="0.20722697613721558" y1="0.7573652580252994" x2="0.7968370630038171" y2="0.20229300051490084" gradientTransform="matrix(200,0,0,200,0,0)" gradientUnits="userSpaceOnUse"><stop offset="0%" stop-opacity="1" style="stop-color:rgb(8,146,208)"/><stop offset="100%" stop-opacity="1" style="stop-color:rgb(242,138,49)"/></linearGradient><rect x="0" y="0" width="200" height="200" transform="matrix(1,0,0,1,0,0)" fill="url(#_lgradient_0)"/><path d=" M 159.456 96.956 L 151.956 111.956 L 144.867 126.133 L 144.867 126.133 L 144.867 126.133 L 144.867 126.956 L 98.456 126.956 L 98.456 126.838 L 98.25 126.838 L 83.544 126.838 L 90.897 111.838 L 98.25 96.838 L 98.25 96.838 L 98.25 96.838 L 98.25 96.838 L 98.25 96.838 L 98.456 97.258 L 98.456 96.956 L 129.456 96.956 L 129.456 96.956 L 129.867 96.956 L 129.867 54.838 L 129.867 54.838 L 129.867 55.044 L 129.456 55.044 L 70.544 55.044 L 70.544 55.044 L 70.544 55.044 L 70.544 159.956 L 70.544 159.956 L 70.544 159.956 L 55.544 167.456 L 40.544 174.956 L 40.544 159.956 L 40.544 40.633 L 41.721 40.633 L 40.544 40.044 L 40.544 40.044 L 40.544 40.044 L 40.544 40.044 L 40.544 40.044 L 55.544 32.544 L 70.544 25.044 L 70.544 25.044 L 70.544 25.044 L 70.544 25.044 L 129.867 25.044 L 129.867 25.25 L 144.456 32.544 L 159.456 40.044 L 159.456 40.044 L 159.456 40.044 L 159.456 40.044 L 159.456 40.044 L 159.456 40.044 L 159.456 40.044 L 159.456 96.956 Z  M 89.599 75.941 L 100.206 65.335 L 110.812 75.941 L 100.206 86.548 L 89.599 75.941 L 89.599 75.941 L 89.599 75.941 L 89.599 75.941 Z " fill-rule="evenodd" fill="rgb(255,255,255)" fill-opacity="0.54"/></g></svg>